<?xml version="1.0" encoding="iso-8859-1"?>
<!-- Uploaded to: SVG Repo, www.svgrepo.com, Generator: SVG Repo Mixer Tools -->
<svg version="1.1" id="Layer_1" xmlns="http://www.w3.org/2000/svg" xmlns:xlink="http://www.w3.org/1999/xlink" 
	 viewBox="0 0 508 508" xml:space="preserve">
<path style="fill:#FFFFFF;" d="M453.9,479.8c14.3,0,25.9-11.6,25.9-25.9V54.1c0-14.3-11.6-25.9-25.9-25.9H54.1
	c-14.3,0-25.9,11.6-25.9,25.9v399.8c0,14.3,11.6,25.9,25.9,25.9H453.9z"/>
<rect x="56.4" y="56.4" style="fill:#56ACE0;" width="395.1" height="395.1"/>
<g>
	<path style="fill:#194F82;" d="M453.9,0H54.1C24.3,0,0,24.3,0,54.1v399.8C0,483.7,24.3,508,54.1,508h399.8
		c29.8,0,54.1-24.3,54.1-54.1V54.1C508,24.3,483.7,0,453.9,0z M479.8,453.9c0,14.3-11.6,25.9-25.9,25.9H54.1
		c-14.3,0-25.9-11.6-25.9-25.9V54.1c0-14.3,11.6-25.9,25.9-25.9h399.8c14.3,0,25.9,11.6,25.9,25.9V453.9z"/>
	<path style="fill:#194F82;" d="M254,47.3L254,47.3c-7.8,0-14.1,6.3-14.1,14.1v27.2c0,7.8,6.3,14.1,14.1,14.1l0,0
		c7.8,0,14.1-6.3,14.1-14.1V61.4C268.1,53.7,261.8,47.3,254,47.3z"/>
	<path style="fill:#194F82;" d="M254,405.2L254,405.2c-7.8,0-14.1,6.3-14.1,14.1v27.2c0,7.8,6.3,14.1,14.1,14.1l0,0
		c7.8,0,14.1-6.3,14.1-14.1v-27.2C268.1,411.5,261.8,405.2,254,405.2z"/>
	<path style="fill:#194F82;" d="M446.6,239.9h-27.2c-7.8,0-14.1,6.3-14.1,14.1l0,0c0,7.8,6.3,14.1,14.1,14.1h27.2
		c7.8,0,14.1-6.3,14.1-14.1l0,0C460.7,246.2,454.4,239.9,446.6,239.9z"/>
	<path style="fill:#194F82;" d="M88.7,239.9H61.5c-7.8,0-14.1,6.3-14.1,14.1l0,0c0,7.8,6.3,14.1,14.1,14.1h27.2
		c7.8,0,14.1-6.3,14.1-14.1l0,0C102.8,246.2,96.5,239.9,88.7,239.9z"/>
	<path style="fill:#194F82;" d="M127.8,107.9c-5.5-5.5-14.4-5.5-20,0c-5.5,5.5-5.5,14.4,0,20l19.2,19.2c5.5,5.5,14.4,5.5,20,0
		c5.5-5.5,5.5-14.4,0-20L127.8,107.9z"/>
	<path style="fill:#194F82;" d="M380.9,360.9c-5.5-5.5-14.4-5.5-20,0c-5.5,5.5-5.5,14.4,0,20l19.2,19.2c5.5,5.5,14.4,5.5,20,0
		c5.5-5.5,5.5-14.4,0-20L380.9,360.9z"/>
	<path style="fill:#194F82;" d="M380.2,107.9L361,127.1c-5.5,5.5-5.5,14.4,0,20c5.5,5.5,14.4,5.5,20,0l19.2-19.2
		c5.5-5.5,5.5-14.4,0-20C394.6,102.4,385.7,102.4,380.2,107.9z"/>
	<path style="fill:#194F82;" d="M127.1,360.9l-19.2,19.2c-5.5,5.5-5.5,14.4,0,20c5.5,5.5,14.4,5.5,20,0l19.2-19.2
		c5.5-5.5,5.5-14.4,0-20C141.5,355.4,132.6,355.4,127.1,360.9z"/>
	<path style="fill:#194F82;" d="M254,131L254,131c-7.8,0-14.1,6.3-14.1,14.1v98.1h-51.1c-7.8,0-14.1,6.3-14.1,14.1l0,0
		c0,7.8,6.3,14.1,14.1,14.1H254c7.8,0,14.1-6.3,14.1-14.1V145.1C268.1,137.3,261.8,131,254,131z"/>
</g>
</svg>